<svg width="3324" height="286" viewBox="0 0 3324 286" fill="none" xmlns="http://www.w3.org/2000/svg">
<path d="M0.600001 102.6H33.3L48.6 64.2H74.1C90 64.2 100.8 74.4 100.8 87.9C100.8 100.8 92.1 110.1 78.3 115.5L31.2 133.8C15.9 139.8 2.1 152.4 2.1 172.8C2.1 197.7 21 211.5 47.4 211.5C73.5 211.5 95.4 189 100.2 165.6V210H150.9V209.1L129.3 199.5V96.9C129.3 76.8 111.9 60 90.6 60H33.6L0.600001 102.6ZM99 106.5V149.1C99 173.4 81.9 188.1 60.3 188.1C43.2 188.1 30 180.6 30 160.8C30 147.9 37.8 135.9 54.3 129.6L79.8 119.7C88.2 116.4 94.8 111.9 99 106.5ZM168.415 82.2V83.1H190.015V199.5L168.415 209.1V210H241.915V209.1L220.315 199.5V132.9C220.315 110.7 235.615 87 262.915 87C275.215 87 284.815 88.2 290.815 89.4V60.6C288.415 60 282.715 59.1 275.515 59.1C248.515 59.1 223.915 92.1 220.315 113.1V60H218.215L168.415 82.2ZM303.34 64.8H326.44V169.8C326.44 196.8 345.64 211.5 367.84 211.5C392.44 211.5 409.84 188.4 410.74 162H409.54C406.54 175.2 394.54 189.9 379.84 189.9C366.34 189.9 356.74 182.1 356.74 162.6V64.8H397.84V60H356.74V-1.43051e-05H355.84L326.44 60H303.34V64.8ZM530.728 125.4C530.728 135 538.528 143.1 548.128 143.1C557.728 143.1 565.528 135 565.528 125.4C565.528 115.8 557.728 107.7 548.128 107.7C538.528 107.7 530.728 115.8 530.728 125.4ZM691.463 135C691.463 178.8 718.763 211.5 752.663 211.5C778.463 211.5 797.363 195.3 803.963 177.6V210H855.863V209.1L834.263 199.5V-1.43051e-05H782.363V0.899992L803.963 10.5V92.4C797.363 74.7 778.463 58.5 752.663 58.5C718.763 58.5 691.463 91.2 691.463 135ZM763.763 70.8C787.763 70.8 803.963 93 803.963 113.4V156.6C803.963 177 787.763 199.2 763.763 199.2C740.663 199.2 723.563 178.2 723.563 135C723.563 91.8 740.663 70.8 763.763 70.8ZM875.119 135.6C875.119 179.1 908.719 211.5 949.819 211.5C990.919 211.5 1023.92 177.9 1024.52 138H1023.62C1018.52 166.2 992.719 187.2 962.419 187.2C928.819 187.2 900.919 161.4 900.919 124.5C900.919 117.6 901.819 111 903.319 105H1021.22C1011.92 75.9 983.419 58.5 951.919 58.5C909.319 58.5 875.119 90 875.119 135.6ZM904.519 100.5C912.619 76.8 931.819 63 951.319 63C970.519 63 984.919 77.7 991.519 100.5H904.519ZM1050.62 157.2L1056.02 200.4C1074.62 209.7 1098.92 211.5 1119.32 211.5C1153.82 211.5 1179.02 196.2 1179.02 168C1179.02 136.8 1154.42 129.6 1120.52 118.8C1097.12 112.5 1073.12 107.4 1073.12 88.8C1073.12 74.4 1087.52 63 1109.72 63C1117.52 63 1127.42 64.2 1132.82 66L1154.12 107.7L1168.22 106.5L1162.82 64.8C1149.02 61.5 1131.62 58.5 1114.22 58.5C1080.32 58.5 1054.82 74.1 1054.82 99.9C1054.82 131.1 1084.82 140.4 1114.52 148.5C1139.72 155.1 1160.42 161.4 1160.72 179.4C1161.02 197.7 1140.02 207 1117.52 207C1107.62 207 1095.62 204.9 1088.42 200.1L1063.22 157.2H1050.62ZM1236.85 39.9C1246.45 39.9 1254.25 32.1 1254.25 22.5C1254.25 12.9 1246.45 5.09999 1236.85 5.09999C1227.25 5.09999 1219.45 12.9 1219.45 22.5C1219.45 32.1 1227.25 39.9 1236.85 39.9ZM1200.25 210H1273.75V209.1L1252.15 199.5V60H1200.25V60.9L1221.85 70.5V199.5L1200.25 209.1V210ZM1429.12 210C1416.52 210 1407.52 216.9 1400.92 231.9C1394.92 245.7 1385.02 257.4 1364.02 257.4C1350.52 257.4 1338.22 249.9 1338.22 235.8C1338.22 223.8 1346.92 211.2 1369.12 211.2C1412.02 211.2 1446.52 179.1 1446.52 134.7C1446.52 106.5 1432.42 85.8 1411.72 73.5H1445.32V48.3L1404.82 66.3C1394.02 61.2 1382.02 58.2 1369.12 58.2C1326.22 58.2 1291.72 90.3 1291.72 134.7C1291.72 172.8 1316.92 201.9 1351.42 209.4C1328.02 214.8 1311.82 230.4 1311.82 249C1311.82 272.1 1329.82 285.3 1353.22 285.3C1374.22 285.3 1388.92 275.1 1398.22 252.6L1406.02 233.7C1411.42 220.8 1418.02 214.8 1429.12 214.8C1440.52 214.8 1449.52 222.6 1449.52 234.6V254.7H1423.72L1407.52 282.6H1454.32V234.6C1454.32 220.5 1443.82 210 1429.12 210ZM1322.02 134.7C1322.02 92.7 1343.02 62.7 1369.12 62.7C1395.22 62.7 1416.22 92.7 1416.22 134.7C1416.22 176.7 1395.22 207 1369.12 207C1343.02 207 1322.02 176.7 1322.02 134.7ZM1473.59 60V60.9L1495.19 70.5V199.5L1473.59 209.1V210H1547.09V209.1L1525.49 199.5V123.9C1525.49 103.5 1537.79 75.3 1563.89 75.3C1588.19 75.3 1594.49 92.7 1594.49 117.6V199.5L1572.89 209.1V210H1646.39V209.1L1624.79 199.5V115.2C1624.79 79.8 1608.89 58.5 1576.49 58.5C1549.49 58.5 1531.19 78.3 1525.49 100.2V60H1473.59ZM1765.01 125.4C1765.01 135 1772.81 143.1 1782.41 143.1C1792.01 143.1 1799.81 135 1799.81 125.4C1799.81 115.8 1792.01 107.7 1782.41 107.7C1772.81 107.7 1765.01 115.8 1765.01 125.4ZM1924.24 135.6C1924.24 179.1 1957.84 211.5 1998.94 211.5C2040.04 211.5 2073.04 177.9 2073.64 138H2072.74C2067.64 166.2 2041.84 187.2 2011.54 187.2C1977.94 187.2 1950.04 161.4 1950.04 124.5C1950.04 86.4 1976.44 64.5 2002.24 64.5H2019.34L2048.74 102.6H2065.24L2048.44 60H2001.04C1958.44 60 1924.24 90 1924.24 135.6ZM2096.44 82.2V83.1H2118.04V199.5L2096.44 209.1V210H2169.94V209.1L2148.34 199.5V132.9C2148.34 110.7 2163.64 87 2190.94 87C2203.24 87 2212.84 88.2 2218.84 89.4V60.6C2216.44 60 2210.74 59.1 2203.54 59.1C2176.54 59.1 2151.94 92.1 2148.34 113.1V60H2146.24L2096.44 82.2ZM2234.2 135.6C2234.2 179.1 2267.8 211.5 2308.9 211.5C2350 211.5 2383 177.9 2383.6 138H2382.7C2377.6 166.2 2351.8 187.2 2321.5 187.2C2287.9 187.2 2260 161.4 2260 124.5C2260 117.6 2260.9 111 2262.4 105H2380.3C2371 75.9 2342.5 58.5 2311 58.5C2268.4 58.5 2234.2 90 2234.2 135.6ZM2263.6 100.5C2271.7 76.8 2290.9 63 2310.4 63C2329.6 63 2344 77.7 2350.6 100.5H2263.6ZM2410.85 102.6H2443.55L2458.85 64.2H2484.35C2500.25 64.2 2511.05 74.4 2511.05 87.9C2511.05 100.8 2502.35 110.1 2488.55 115.5L2441.45 133.8C2426.15 139.8 2412.35 152.4 2412.35 172.8C2412.35 197.7 2431.25 211.5 2457.65 211.5C2483.75 211.5 2505.65 189 2510.45 165.6V210H2561.15V209.1L2539.55 199.5V96.9C2539.55 76.8 2522.15 60 2500.85 60H2443.85L2410.85 102.6ZM2509.25 106.5V149.1C2509.25 173.4 2492.15 188.1 2470.55 188.1C2453.45 188.1 2440.25 180.6 2440.25 160.8C2440.25 147.9 2448.05 135.9 2464.55 129.6L2490.05 119.7C2498.45 116.4 2505.05 111.9 2509.25 106.5ZM2572.97 64.8H2596.07V169.8C2596.07 196.8 2615.27 211.5 2637.47 211.5C2662.07 211.5 2679.47 188.4 2680.37 162H2679.17C2676.17 175.2 2664.17 189.9 2649.47 189.9C2635.97 189.9 2626.37 182.1 2626.37 162.6V64.8H2667.47V60H2626.37V-1.43051e-05H2625.47L2596.07 60H2572.97V64.8ZM2733.92 39.9C2743.52 39.9 2751.32 32.1 2751.32 22.5C2751.32 12.9 2743.52 5.09999 2733.92 5.09999C2724.32 5.09999 2716.52 12.9 2716.52 22.5C2716.52 32.1 2724.32 39.9 2733.92 39.9ZM2697.32 210H2770.82V209.1L2749.22 199.5V60H2697.32V60.9L2718.92 70.5V199.5L2697.32 209.1V210ZM2767.35 60.9L2788.65 70.2L2857.95 210H2859.15L2920.65 79.5L2950.35 60.6V60H2883.15V60.6L2914.35 79.5L2871.15 171.9L2820.45 70.2L2841.45 60.9V60H2767.35V60.9ZM2989.1 39.9C2998.7 39.9 3006.5 32.1 3006.5 22.5C3006.5 12.9 2998.7 5.09999 2989.1 5.09999C2979.5 5.09999 2971.7 12.9 2971.7 22.5C2971.7 32.1 2979.5 39.9 2989.1 39.9ZM2952.5 210H3026V209.1L3004.4 199.5V60H2952.5V60.9L2974.1 70.5V199.5L2952.5 209.1V210ZM3036.15 64.8H3059.25V169.8C3059.25 196.8 3078.45 211.5 3100.65 211.5C3125.25 211.5 3142.65 188.4 3143.55 162H3142.35C3139.35 175.2 3127.35 189.9 3112.65 189.9C3099.15 189.9 3089.55 182.1 3089.55 162.6V64.8H3130.65V60H3089.55V-1.43051e-05H3088.65L3059.25 60H3036.15V64.8ZM3140.57 60.9L3161.87 70.2L3228.77 204.9C3215.87 230.7 3194.57 243.9 3165.77 243.9V276C3198.77 276 3211.67 253.2 3230.27 213.9L3293.87 79.5L3323.57 60.6V60H3256.37V60.6L3287.57 79.5L3244.37 171.9L3193.67 70.2L3214.67 60.9V60H3140.57V60.9Z" fill="white" fill-opacity="0.2"/>
</svg>
