<svg width="200" height="44" viewBox="0 0 200 44" fill="none" xmlns="http://www.w3.org/2000/svg">
<path d="M9.09091 43.5078C6.65189 40.04 4.11891 32.8024 4.825 21.5432L5.64879 8.74594L18.6528 43.5078H26.1641L23.2816 36.3L27.479 23.9427C29.3031 18.7131 31.7744 13.7295 33.5985 10.6532L34.7165 30.772C34.9519 35.448 35.3365 40.26 32.2136 43.5078H44.1311C42.8366 40.8622 41.7186 37.1707 41.3656 30.772L39.9534 5.05441C40.7772 3.33169 42.3975 1.23051 43.2801 0H35.3365L22.8894 34.9558L9.50076 0H2.08673L5.00153 7.02322L4.06006 22.5892C3.47165 31.941 1.94177 39.0164 0 43.5078H9.09091Z" fill="black"/>
<path d="M43.5918 17.5012C44.9451 18.6086 46.2985 20.8049 46.2985 26.0961V31.941C46.2985 40.6776 49.7113 44 55.4189 44C58.8905 44 62.4799 41.8466 64.3628 39.4471L64.304 43.5078H73.6009C72.1299 42.2158 70.6589 38.6473 70.6589 32.7408V12.2529L61.7738 17.2551V17.5012C63.1271 18.6086 64.4805 20.8049 64.4805 26.0961L64.3628 38.2166C62.7741 39.9393 60.7146 41.2929 58.1844 41.2929C54.1832 41.2929 52.4768 38.3397 52.4768 31.1412V12.2529L43.5918 17.2551V17.5012Z" fill="black"/>
<path d="M98.336 34.9558C98.1594 29.9722 94.0994 27.4497 88.3918 24.6195C83.096 22.097 80.2128 20.3742 80.0951 17.2364C79.9774 14.5293 82.5076 12.8681 85.685 13.1142C90.4512 13.4834 94.235 17.2364 96.3354 25.0166H96.453L95.9823 14.2832C93.9817 13.2988 91.0396 12.3144 87.2149 12.2529C80.4481 12.0683 75.3878 14.8369 75.5055 20.7434C75.682 26.0346 79.9186 28.3725 85.8027 31.4488C89.8628 33.5407 93.511 35.1403 93.6286 38.2166C93.8052 41.4159 91.3338 43.2002 87.4503 43.1386C83.5667 43.0156 77.827 39.4471 75.3878 30.8149H75.2701L75.8585 42.2158C78.271 43.0771 82.1546 44 87.0972 44C93.0402 44 98.4537 40.8622 98.336 34.9558Z" fill="black"/>
<path d="M129.562 27.7386C128.68 33.522 124.208 38.3397 118.029 38.3397C111.557 38.3397 106.202 33.4792 106.202 26.2192C106.202 25.4808 106.261 24.7425 106.32 24.0042H127.802C127.111 16.06 122.616 12.2529 115.205 12.2529C106.85 12.2529 99.9651 18.8976 99.9651 28.2495C99.9651 37.2322 106.673 44 115.087 44C123.325 44 129.562 38.2166 129.68 27.7386H129.562ZM115.382 12.9912C118.677 12.9912 120.913 15.0215 120.913 17.6671C120.913 21.1741 118.794 23.389 112.734 23.389H106.379C107.261 17.298 110.792 12.9912 115.382 12.9912Z" fill="black"/>
<path d="M162.822 43.5078C160.88 40.4315 158.409 35.3864 154.879 25.9115L145.464 0.44H138.359L141.522 8.37678C140.109 11.33 136.991 18.0363 132.695 33.0485C131.695 36.6785 130.155 40.26 127.807 43.5078H137.285C137.109 41.9697 136.755 39.078 136.755 36.4324C136.755 31.0181 137.285 26.3422 137.991 22.3431H146.464L149.23 30.0953C152.054 38.1551 151.663 39.6 150.554 43.5078H162.822ZM138.109 21.6047C139.286 15.7598 140.874 11.5761 141.816 9.29966L146.229 21.6047H138.109Z" fill="black"/>
<path d="M162.432 17.3688C163.785 18.4763 165.256 20.7434 165.138 26.1576L164.785 43.5078H175.413C173.941 42.2158 171.317 39.38 171.317 32.7408V26.9575C171.375 20.928 177.384 17.3688 181.967 19.7068L183.379 12.2529C176.436 13.0527 172.493 16.9288 171.317 24.1273V11.8129L162.432 17.1227V17.3688Z" fill="black"/>
<path d="M193.668 12.4375V3.11915H193.315C191.796 8.37678 187.784 11.7607 183.842 12.622V13.0527H187.431V30.0337C187.431 39.8778 192.018 43.5078 200 43.5078V43.1386C197.117 42.708 193.668 39.078 193.668 30.649V13.0527H199.113V12.4375H193.668Z" fill="black"/>
</svg>
