<svg width="40" height="40" viewBox="0 0 40 40" fill="none" xmlns="http://www.w3.org/2000/svg">
<path d="M17.8 9C10.28 12.92 7 18.36 7 23.4C7 27.56 8.92 31.72 13.32 31.72C16.12 31.72 18.84 29.24 18.84 26.04C18.84 22.68 16.44 20.76 13.16 20.6C11.56 20.44 10.12 20.36 9.88 18.6C9.32 15.72 14.84 11 17.88 9.24L17.8 9ZM32.44 9C24.92 12.92 21.64 18.36 21.64 23.4C21.64 27.56 23.56 31.72 27.96 31.72C30.76 31.72 33.48 29.24 33.48 26.04C33.48 22.68 31.08 20.76 27.8 20.6C26.2 20.44 24.76 20.36 24.52 18.6C23.96 15.72 29.48 11 32.52 9.24L32.44 9Z" fill="black"/>
</svg>
