<svg width="32" height="32" viewBox="0 0 32 32" fill="none" xmlns="http://www.w3.org/2000/svg">
<path d="M7.18566 17.28C9.51554 15.2968 13.3987 12.3826 15.68 11.2898C17.9614 12.3826 21.9901 15.2968 24.1744 17.28L24.32 17.1181C20.8252 12.9898 18.2041 9.95419 15.68 7.04004C13.2531 9.95419 10.6805 13.0302 7.04004 17.1181L7.18566 17.28Z" fill="#4E5969"/>
<path d="M7.18566 24.96C9.51554 22.9767 13.3987 20.0626 15.68 18.9698C17.9614 20.0626 21.9901 22.9767 24.1744 24.96L24.32 24.7981C20.8252 20.6697 18.2041 17.6341 15.68 14.72C13.2531 17.6341 10.6805 20.7102 7.04004 24.7981L7.18566 24.96Z" fill="#4E5969"/>
</svg>
